<svg width="107" height="27" viewBox="0 0 107 27" fill="none" xmlns="http://www.w3.org/2000/svg">
<path d="M0.212358 26V0.545454H5.59411V21.5629H16.5067V26H0.212358ZM45.9709 13.2727C45.9709 16.0485 45.4447 18.41 44.3924 20.3572C43.3484 22.3045 41.9232 23.7918 40.1168 24.8192C38.3188 25.8384 36.297 26.348 34.0515 26.348C31.7894 26.348 29.7594 25.8343 27.9613 24.8068C26.1632 23.7794 24.7422 22.292 23.6982 20.3448C22.6541 18.3976 22.1321 16.0402 22.1321 13.2727C22.1321 10.4969 22.6541 8.13542 23.6982 6.18821C24.7422 4.241 26.1632 2.75781 27.9613 1.73864C29.7594 0.711174 31.7894 0.197442 34.0515 0.197442C36.297 0.197442 38.3188 0.711174 40.1168 1.73864C41.9232 2.75781 43.3484 4.241 44.3924 6.18821C45.4447 8.13542 45.9709 10.4969 45.9709 13.2727ZM40.5146 13.2727C40.5146 11.4747 40.2453 9.95833 39.7067 8.72372C39.1764 7.48911 38.4265 6.55279 37.457 5.91477C36.4876 5.27675 35.3524 4.95774 34.0515 4.95774C32.7506 4.95774 31.6154 5.27675 30.646 5.91477C29.6765 6.55279 28.9225 7.48911 28.3839 8.72372C27.8536 9.95833 27.5884 11.4747 27.5884 13.2727C27.5884 15.0708 27.8536 16.5871 28.3839 17.8217C28.9225 19.0563 29.6765 19.9927 30.646 20.6307C31.6154 21.2687 32.7506 21.5877 34.0515 21.5877C35.3524 21.5877 36.4876 21.2687 37.457 20.6307C38.4265 19.9927 39.1764 19.0563 39.7067 17.8217C40.2453 16.5871 40.5146 15.0708 40.5146 13.2727ZM70.336 8.77344C70.162 8.16856 69.9176 7.63411 69.6027 7.1701C69.2879 6.6978 68.9026 6.30007 68.4468 5.97692C67.9994 5.64548 67.4856 5.39276 66.9056 5.21875C66.3339 5.04474 65.7 4.95774 65.004 4.95774C63.7031 4.95774 62.5596 5.28089 61.5736 5.9272C60.5959 6.57351 59.8335 7.51397 59.2867 8.74858C58.7398 9.9749 58.4664 11.4747 58.4664 13.2479C58.4664 15.0211 58.7356 16.5291 59.2742 17.772C59.8128 19.0149 60.5751 19.9637 61.5612 20.6183C62.5472 21.2646 63.7114 21.5877 65.0537 21.5877C66.2718 21.5877 67.3116 21.3723 68.1734 20.9414C69.0434 20.5022 69.7063 19.8849 70.162 19.0895C70.626 18.294 70.858 17.3536 70.858 16.2681L71.9518 16.4297H65.3893V12.3778H76.0409V15.5845C76.0409 17.8217 75.5686 19.7441 74.624 21.3516C73.6794 22.9508 72.3785 24.1854 70.7213 25.0554C69.0641 25.9171 67.1666 26.348 65.0289 26.348C62.6425 26.348 60.5461 25.8219 58.7398 24.7695C56.9334 23.7089 55.5248 22.205 54.5139 20.2578C53.5113 18.3023 53.01 15.9822 53.01 13.2976C53.01 11.2344 53.3083 9.39489 53.9049 7.77912C54.5098 6.15507 55.355 4.77959 56.4404 3.6527C57.5259 2.5258 58.7895 1.6682 60.2313 1.0799C61.673 0.491595 63.2349 0.197442 64.917 0.197442C66.3588 0.197442 67.7011 0.408735 68.944 0.831321C70.1869 1.24562 71.2889 1.83392 72.2501 2.59624C73.2195 3.35855 74.0109 4.26586 74.624 5.31818C75.2372 6.36221 75.6308 7.51397 75.8048 8.77344H70.336ZM106.975 13.2727C106.975 16.0485 106.449 18.41 105.396 20.3572C104.352 22.3045 102.927 23.7918 101.121 24.8192C99.3227 25.8384 97.3009 26.348 95.0554 26.348C92.7933 26.348 90.7633 25.8343 88.9652 24.8068C87.1671 23.7794 85.7461 22.292 84.7021 20.3448C83.658 18.3976 83.136 16.0402 83.136 13.2727C83.136 10.4969 83.658 8.13542 84.7021 6.18821C85.7461 4.241 87.1671 2.75781 88.9652 1.73864C90.7633 0.711174 92.7933 0.197442 95.0554 0.197442C97.3009 0.197442 99.3227 0.711174 101.121 1.73864C102.927 2.75781 104.352 4.241 105.396 6.18821C106.449 8.13542 106.975 10.4969 106.975 13.2727ZM101.518 13.2727C101.518 11.4747 101.249 9.95833 100.711 8.72372C100.18 7.48911 99.4304 6.55279 98.4609 5.91477C97.4915 5.27675 96.3563 4.95774 95.0554 4.95774C93.7545 4.95774 92.6193 5.27675 91.6499 5.91477C90.6804 6.55279 89.9264 7.48911 89.3878 8.72372C88.8575 9.95833 88.5923 11.4747 88.5923 13.2727C88.5923 15.0708 88.8575 16.5871 89.3878 17.8217C89.9264 19.0563 90.6804 19.9927 91.6499 20.6307C92.6193 21.2687 93.7545 21.5877 95.0554 21.5877C96.3563 21.5877 97.4915 21.2687 98.4609 20.6307C99.4304 19.9927 100.18 19.0563 100.711 17.8217C101.249 16.5871 101.518 15.0708 101.518 13.2727Z" fill="black"/>
</svg>
