<svg id="Слой_1" data-name="Слой 1" xmlns="http://www.w3.org/2000/svg" viewBox="0 0 696.38 152.8"><defs><style>.cls-1{fill:#1d1d1b;}</style></defs><path d="M220.54,52.48h-6V32.8H193.29V52.48h-6a32.88,32.88,0,0,0,.37-5.06q.06-3.3.06-7.62V22.6q0-4.3-.06-7.62a33,33,0,0,0-.37-5.06h6V28.14h21.28V9.92h6a33,33,0,0,0-.37,5.06q-.06,3.32-.06,7.62V39.8q0,4.32.06,7.62A32.88,32.88,0,0,0,220.54,52.48Z"/><path d="M236.58,27.85h16.61v4.66H236.58V47.67h7.69q4.32,0,7.27-.07a34.56,34.56,0,0,0,4.71-.37v5.25H230.6a33.94,33.94,0,0,0,.38-5.06q.06-3.3.06-7.62V22.6q0-4.3-.06-7.62a34.06,34.06,0,0,0-.38-5.06h24.78v4.81h-18.8Z"/><path d="M297.49,52.48H268.05a29.74,29.74,0,0,0-.65,4.27c-.15,1.62-.24,3.24-.29,4.87s-.07,3-.07,4.27h-4.81V47.67h4.66a89,89,0,0,0,7.53-18.38,92.29,92.29,0,0,0,3.4-19.37h20.55a32.13,32.13,0,0,0-.38,5q-.06,3.22-.06,7.55V47.67h5.39V65.89h-4.81c0-1.23,0-2.65-.07-4.27s-.14-3.25-.29-4.87A29.64,29.64,0,0,0,297.49,52.48Zm-5.1-4.81V14.73h-9.47a95.39,95.39,0,0,1-3.41,16.56,94.28,94.28,0,0,1-6.65,16.38Z"/><path d="M340.05,40.24a12.06,12.06,0,0,1-1.73,6.37,11.86,11.86,0,0,1-5.37,4.5,22.6,22.6,0,0,1-9.37,1.66q-5.1,0-8.76-.09c-2.44,0-4.23-.12-5.37-.2a36.64,36.64,0,0,0,.37-5.35q.06-3.6.06-7.91V23.33q0-4.27-.06-8a37.4,37.4,0,0,0-.37-5.44c1.28-.09,3.21-.17,5.78-.21s5.31-.08,8.21-.08q6.71,0,10.56,2.25c2.58,1.49,3.86,4.15,3.86,7.95a8.42,8.42,0,0,1-2.08,5.94,13.21,13.21,0,0,1-5.06,3.39A18.52,18.52,0,0,1,335.11,31a9.92,9.92,0,0,1,3.54,3.43A10.88,10.88,0,0,1,340.05,40.24ZM315.42,14.3V27.56h6.85q5.34,0,7.62-1.79a6.06,6.06,0,0,0,2.29-5.06,5.85,5.85,0,0,0-2.1-4.91q-2.1-1.65-6.94-1.65c-1.57,0-3.1,0-4.57,0S316,14.26,315.42,14.3Zm0,17.78V48l3.12.09q2.1.06,5.19.06a18.91,18.91,0,0,0,5.21-.7A8.06,8.06,0,0,0,332.87,45a7,7,0,0,0,1.5-4.75q0-4.26-2.82-6.21c-1.87-1.3-4.58-2-8.11-2Z"/><path d="M354.48,9.92V52.48h-5.1V22.6q0-4.3-.06-7.62a34.06,34.06,0,0,0-.38-5.06Zm22.59,1.4L380.54,15,354.48,51,351,47.58Zm5.54,41.16h-5.54V9.92h5.54a32.74,32.74,0,0,0-.38,5.06q-.06,3.32-.06,7.62V40q0,4.3.06,7.55A32.1,32.1,0,0,0,382.61,52.48Z"/><path d="M417.15,32.66h-6a6.83,6.83,0,0,0-3.1.71,7.87,7.87,0,0,0-2.44,1.91,19.66,19.66,0,0,0-3.44,6.4,96.37,96.37,0,0,0-3,10.8H393q.92-3.61,2.17-7.35c.85-2.48,1.71-4.76,2.58-6.82a35.55,35.55,0,0,1,2.39-4.78,11.05,11.05,0,0,1,2-2.33,7.52,7.52,0,0,1,2.63-1.46A6.82,6.82,0,0,1,402.88,28a11.71,11.71,0,0,1-1.18-1.92,16.64,16.64,0,0,1-1.14-3.34c-.27-1.17-.5-2.28-.68-3.32a14.06,14.06,0,0,0-.66-2.52,4.47,4.47,0,0,0-1.15-1.79,2.51,2.51,0,0,0-1.77-.69,4.57,4.57,0,0,0-2,.44l-1.16-5.1a7.56,7.56,0,0,1,1.69-.42,12.2,12.2,0,0,1,1.95-.16,6.49,6.49,0,0,1,5.54,2.62A10.93,10.93,0,0,1,404,15.53c.41,1.53.82,3.1,1.22,4.71a18.34,18.34,0,0,0,1.59,4.26,6.35,6.35,0,0,0,2.69,2.74,7.07,7.07,0,0,0,3,.76h4.67Zm2.91-22.74V52.48h-5.54V9.92Zm-2.62,22.74V28h4.66a7.07,7.07,0,0,0,3-.76,6.31,6.31,0,0,0,2.7-2.74,17.49,17.49,0,0,0,1.6-4.26c.39-1.61.79-3.18,1.21-4.71a10.73,10.73,0,0,1,1.7-3.71,6.49,6.49,0,0,1,5.54-2.62,12.53,12.53,0,0,1,2,.16,6.84,6.84,0,0,1,1.67.42l-1.16,5.1a4.54,4.54,0,0,0-2-.44,2.52,2.52,0,0,0-1.75.69,4.3,4.3,0,0,0-1.17,1.79,17.48,17.48,0,0,0-.64,2.52c-.19,1-.42,2.15-.68,3.32a16.06,16.06,0,0,1-1.15,3.34A13.26,13.26,0,0,1,431.71,28a7.11,7.11,0,0,1-1.88,1.72,8.55,8.55,0,0,1,5.24,4.38,34.79,34.79,0,0,1,2.25,4.78c.77,2,1.54,4.11,2.28,6.45s1.43,4.72,2,7.13h-6.27a96.37,96.37,0,0,0-3-10.8,19.66,19.66,0,0,0-3.44-6.4,8,8,0,0,0-2.43-1.91,6.9,6.9,0,0,0-3.11-.71Z"/><path d="M457.08,9.92V52.48H452V22.6q0-4.3-.06-7.62a34.06,34.06,0,0,0-.38-5.06Zm22.59,1.4L483.14,15,457.08,51l-3.47-3.44Zm5.54,41.16h-5.54V9.92h5.54a32.74,32.74,0,0,0-.38,5.06q-.06,3.32-.06,7.62V40q0,4.3.06,7.55A32.1,32.1,0,0,0,485.21,52.48Z"/><path d="M502,9.92l-.88,5-.44,37.6H495c.12-.82.23-2.19.34-4.13s.21-4.2.32-6.8.2-5.35.29-8.24.17-5.7.26-8.46.16-5.27.22-7.52.12-4.72.17-7.41ZM516.39,46.5l12.1-36.58h5L519.31,52.48h-5.69L499.34,9.92h5.1Zm21.72,6h-5.68l-.59-37.89-1-4.67h5.39c.08,2.69.16,5.15.22,7.41s.15,4.76.25,7.52.21,5.58.32,8.46.24,5.64.37,8.24.25,4.87.38,6.8S538,51.66,538.11,52.48Z"/><path d="M583.87,30.91a26.73,26.73,0,0,1-1.54,9.39,21.48,21.48,0,0,1-4.16,7,18.38,18.38,0,0,1-5.88,4.38,16,16,0,0,1-6.78,1.52,16.53,16.53,0,0,1-6.75-1.43,17,17,0,0,1-5.74-4.2,20,20,0,0,1-4-6.8,27.33,27.33,0,0,1-1.46-9.29,26.61,26.61,0,0,1,1.55-9.37,21.39,21.39,0,0,1,4.18-7,18.45,18.45,0,0,1,6-4.4,16.26,16.26,0,0,1,13.49-.09,17.07,17.07,0,0,1,5.7,4.2,20.3,20.3,0,0,1,4,6.81A27,27,0,0,1,583.87,30.91Zm-5.68.73a24.77,24.77,0,0,0-1.56-9.27,13.72,13.72,0,0,0-4.34-6,10.54,10.54,0,0,0-6.49-2.09,10.92,10.92,0,0,0-6.5,2A13.29,13.29,0,0,0,554.87,22a21.86,21.86,0,0,0-1.6,8.74A24.82,24.82,0,0,0,554.83,40a13.52,13.52,0,0,0,4.37,6,10.66,10.66,0,0,0,6.6,2.12,10.82,10.82,0,0,0,6.38-2,13,13,0,0,0,4.4-5.65A22.1,22.1,0,0,0,578.19,31.64Z"/><path d="M622.05,42.71l1.17,5.69A14.58,14.58,0,0,1,619.1,51a25.59,25.59,0,0,1-5.05,1.61,23.27,23.27,0,0,1-4.82.56,19.06,19.06,0,0,1-10.17-2.63,17.13,17.13,0,0,1-6.6-7.43,25.84,25.84,0,0,1-2.32-11.37,27.78,27.78,0,0,1,1.6-9.86,19.89,19.89,0,0,1,4.39-7.07,18.39,18.39,0,0,1,6.31-4.24,19.68,19.68,0,0,1,7.37-1.41,26,26,0,0,1,6.49.87,18.53,18.53,0,0,1,6.48,3.21L621,18.52a15.81,15.81,0,0,0-5.66-3.42,18.05,18.05,0,0,0-5.57-.95A13.78,13.78,0,0,0,602.6,16a12.86,12.86,0,0,0-5,5.66,21.49,21.49,0,0,0-1.81,9.36,21.3,21.3,0,0,0,1.78,9.05A14.07,14.07,0,0,0,602.48,46a12.35,12.35,0,0,0,7,2.09,16.74,16.74,0,0,0,6.71-1.47A18.72,18.72,0,0,0,622.05,42.71Z"/><path d="M628.18,9.92h33.66v5.4a22,22,0,0,0-3.45-.49c-1.14-.06-2.37-.1-3.69-.1h-7V39.8q0,4.32.1,7.62a30.4,30.4,0,0,0,.48,5.06h-6.71a28.37,28.37,0,0,0,.48-5.06q.11-3.3.11-7.62V14.73h-6.85c-1.31,0-2.53,0-3.68.1a22,22,0,0,0-3.46.49Z"/><path d="M668.4,9.92h6V27.56h5.68q8.63,0,12.47,3.32a11,11,0,0,1,3.85,8.77,12.79,12.79,0,0,1-1.72,6.52A12.22,12.22,0,0,1,689.37,51a20.18,20.18,0,0,1-9.16,1.81c-2,0-3.85,0-5.66-.07s-3.86-.12-6.15-.22a36.33,36.33,0,0,0,.38-5.35q.06-3.6.06-7.91V22.6q0-4.3-.06-7.62A34.06,34.06,0,0,0,668.4,9.92Zm6,22.16V48l2.17.09c.9,0,2.17.06,3.8.06a15,15,0,0,0,5.15-.85,8.08,8.08,0,0,0,3.77-2.71,7.84,7.84,0,0,0,1.43-4.9c0-2.68-.93-4.61-2.77-5.8s-4.47-1.77-7.87-1.77Z"/><path d="M219.92,120.81l1.16,5.69a14.42,14.42,0,0,1-4.12,2.63,26.21,26.21,0,0,1-5,1.62,23.36,23.36,0,0,1-4.83.56,19.11,19.11,0,0,1-10.17-2.63,17.19,17.19,0,0,1-6.6-7.43A25.9,25.9,0,0,1,188,109.88a27.74,27.74,0,0,1,1.6-9.86A19.89,19.89,0,0,1,194,93a18.34,18.34,0,0,1,6.31-4.24,19.49,19.49,0,0,1,7.37-1.42,25.48,25.48,0,0,1,6.49.88,18.63,18.63,0,0,1,6.49,3.2l-1.75,5.25a15.81,15.81,0,0,0-5.66-3.42,17.76,17.76,0,0,0-5.57-1,13.78,13.78,0,0,0-7.21,1.89,12.92,12.92,0,0,0-5,5.66,21.55,21.55,0,0,0-1.81,9.35,21.39,21.39,0,0,0,1.78,9,14,14,0,0,0,4.88,5.92,12.35,12.35,0,0,0,7,2.09,16.76,16.76,0,0,0,6.71-1.48A18.69,18.69,0,0,0,219.92,120.81Z"/><path d="M234.93,88v42.56h-5.1V100.7c0-2.87,0-5.42-.06-7.62a33.94,33.94,0,0,0-.38-5.06Zm22.59,1.4L261,93.09l-26.06,36-3.47-3.44Zm5.54,41.16h-5.54V88h5.54a32.63,32.63,0,0,0-.38,5.06c0,2.2-.06,4.75-.06,7.62V118q0,4.32.06,7.55A32.13,32.13,0,0,0,263.06,130.58Z"/><path d="M269.76,88h33.67v5.39a23.38,23.38,0,0,0-3.46-.48c-1.14-.06-2.36-.1-3.69-.1h-7V117.9q0,4.3.1,7.62a30.4,30.4,0,0,0,.48,5.06h-6.7a30.4,30.4,0,0,0,.48-5.06q.11-3.31.1-7.62V92.83H276.9c-1.3,0-2.52,0-3.67.1a23.33,23.33,0,0,0-3.47.48Z"/><path d="M315.52,88v42.56h-5.1V100.7c0-2.87,0-5.42-.06-7.62A32.63,32.63,0,0,0,310,88Zm22.59,1.4,3.47,3.67-26.06,36-3.47-3.44Zm5.54,41.16h-5.54V88h5.54a32.63,32.63,0,0,0-.38,5.06c0,2.2-.06,4.75-.06,7.62V118q0,4.32.06,7.55A32.13,32.13,0,0,0,343.65,130.58Z"/><path class="cls-1" d="M64.31,137.71H56.1a1.8,1.8,0,0,1-1.8-1.81V72.55H66.11V135.9A1.81,1.81,0,0,1,64.31,137.71Zm-7-3h5.81V75.55H57.3Z"/><path class="cls-1" d="M103.68,137.71h-8a1.81,1.81,0,0,1-1.81-1.81V89.27h11.64V135.9A1.81,1.81,0,0,1,103.68,137.71Zm-6.83-3h5.64V92.27H96.85Z"/><path class="cls-1" d="M26.9,135.09a1.82,1.82,0,0,1-1.2-.46A77.14,77.14,0,0,1,76.33,0a77.14,77.14,0,0,1,52.36,134.54,1.81,1.81,0,0,1-3-1.35V92.27H102.49v-46L57.3,25.16V75.55H28.71v57.74a1.8,1.8,0,0,1-1.07,1.64A1.76,1.76,0,0,1,26.9,135.09ZM77.14,3h-.78A74.14,74.14,0,0,0,25.71,130.55v-58H54.3V20.45l51.19,23.89V89.27h23.19v41.19A74.22,74.22,0,0,0,77.14,3Z"/><path class="cls-1" d="M55.8,75.55H27.21a1.5,1.5,0,1,1,0-3H55.8a1.5,1.5,0,0,1,0,3Z"/><path class="cls-1" d="M64.31,137.71H56.1a1.8,1.8,0,0,1-1.8-1.81V72.55H66.11V135.9A1.81,1.81,0,0,1,64.31,137.71Zm-7-3h5.81V75.55H57.3Z"/><path class="cls-1" d="M95.35,137.71a1.5,1.5,0,0,1-1.5-1.5V89.27h8.64v-43L57.3,25.16V72.55h8.81v63.66a1.5,1.5,0,0,1-3,0V75.55H54.3V20.45l51.19,23.89V92.27H96.85v43.94A1.5,1.5,0,0,1,95.35,137.71Z"/><path class="cls-1" d="M55.8,137.71a1.5,1.5,0,0,1-1.5-1.5V72.55H64.61a1.5,1.5,0,0,1,0,3H57.3v60.66A1.51,1.51,0,0,1,55.8,137.71Z"/><path class="cls-1" d="M104,137.71a1.5,1.5,0,0,1-1.5-1.5V92.27H95.35a1.5,1.5,0,0,1,0-3h10.14v46.94A1.5,1.5,0,0,1,104,137.71Z"/><path class="cls-1" d="M127.18,92.27H104a1.5,1.5,0,0,1,0-3h23.19a1.5,1.5,0,0,1,0,3Z"/><path class="cls-1" d="M104,137.71a1.5,1.5,0,0,1-1.5-1.5V92.27H95.35a1.5,1.5,0,0,1,0-3h10.14v46.94A1.5,1.5,0,0,1,104,137.71Z"/></svg>